<svg xmlns="http://www.w3.org/2000/svg" width="34.132" height="37.429" viewBox="0 0 34.132 37.429">
  <g transform="translate(-403 -393)">
    <path d="M494.676,514.142a9.845,9.845,0,1,0,9.845-9.845,9.845,9.845,0,0,0-9.845,9.845Zm6-3.845a1.31,1.31,0,1,1-.384.927,1.32,1.32,0,0,1,.384-.927Zm7.69,7.689a1.31,1.31,0,1,1,.384-.927,1.32,1.32,0,0,1-.384.927Zm-.017-7.672a1.311,1.311,0,0,1,0,1.853l-5.8,5.8a1.311,1.311,0,0,1-1.854-1.854l5.8-5.8a1.312,1.312,0,0,1,1.854,0Zm0,0" transform="translate(-77.234 -93.764)" fill="#c4cc79"/>
    <path d="M414.821,420.377a12.48,12.48,0,0,1,12.466-12.466c.228,0,.454.007.679.019v-13.62A1.31,1.31,0,0,0,426.655,393H404.311A1.311,1.311,0,0,0,403,394.311v34.809a1.31,1.31,0,0,0,1.311,1.31h15.612a12.455,12.455,0,0,1-5.1-10.052Zm-4.41-20.416h9.282a1.311,1.311,0,0,1,0,2.621h-9.282a1.311,1.311,0,0,1,0-2.621Zm0,6.962h9.282a1.31,1.31,0,1,1,0,2.621h-9.282a1.31,1.31,0,1,1,0-2.621Zm2.32,9.582h-2.32a1.31,1.31,0,1,1,0-2.621h2.32a1.31,1.31,0,1,1,0,2.621Zm0,0" transform="translate(0 0)" fill="#c4cc79"/>
  </g>
</svg>
